# xmcd
#
# Track frame offsets:
#	150
#	2427
#	18390
#	36940
#	51362
#	64797
#	81017
#	90387
#	110915
#	131560
#	146670
#
# Disc length: 2223 seconds
#
# Revision: 3
# Processed by: cddbd v1.5.1PL0 Copyright (c) Steve Scherf et al.
# Submitted via: EasyCDDAExtractor 7.0.5.4
#
DISCID=8e08ad0b
DTITLE=許\志安 - 【男人的感慨】
DYEAR=1900
DGENRE=Pop
TTITLE0=開場白
TTITLE1=男人的感慨
TTITLE2=值得等
TTITLE3=自私
TTITLE4=抱歉
TTITLE5=祝你幸福
TTITLE6=中場休息
TTITLE7=灰飛煙滅
TTITLE8=阿門
TTITLE9=假動作
TTITLE10=男人最痛（blues version）
EXTD=ID3G: 13
EXTT0=
EXTT1=
EXTT2=
EXTT3=
EXTT4=
EXTT5=
EXTT6=
EXTT7=
EXTT8=
EXTT9=
EXTT10=
PLAYORDER=
